<?xml version="1.0" encoding="iso-8859-1"?>
<!-- Generator: Adobe Illustrator 16.0.0, SVG Export Plug-In . SVG Version: 6.00 Build 0)  -->
<!DOCTYPE svg PUBLIC "-//W3C//DTD SVG 1.1//EN" "http://www.w3.org/Graphics/SVG/1.1/DTD/svg11.dtd">
<svg version="1.1" id="Capa_1" xmlns="http://www.w3.org/2000/svg" xmlns:xlink="http://www.w3.org/1999/xlink" x="0px" y="0px"
	 width="30.318px" height="25.219px" viewBox="0 0 30.318 25.219" style="enable-background:new 0 0 30.318 25.219;"
	 xml:space="preserve">
<path d="M29.062,9.959v-1.83l-0.137-0.508c-0.039-0.061-0.65-1.125-1.873-2.219c-0.928-0.83-2.252-1.682-3.928-2.041V0
	c-7.361,0.533-8.131,6.312-8.131,6.312v0.053c-0.006,0.006-0.014,0.014-0.02,0.021c-0.264-0.307-0.584-0.643-0.963-0.984
	c-1.221-1.09-3.109-2.223-5.594-2.223c-2.488,0-4.357,1.137-5.553,2.23C1.666,6.508,1.08,7.578,1.045,7.639l-0.129,0.49v1.83H0
	v15.26h30.318V9.959H29.062z M5.428,22.123c0.811-0.479,1.797-0.828,2.99-0.83c1.188,0,2.189,0.35,3.018,0.83H5.428z M13.961,21.426
	c-1.217-1.074-3.088-2.182-5.543-2.182H8.414c-2.416,0-4.246,1.072-5.439,2.133V8.42c0.211-0.322,0.67-0.959,1.365-1.572
	c0.957-0.84,2.289-1.611,4.078-1.611c1.84,0,3.24,0.828,4.223,1.701c0.488,0.434,0.867,0.875,1.113,1.201
	c0.086,0.111,0.154,0.215,0.207,0.293V21.426z M21.461,1.787V3.18v2.057v11.918c0,0-2.771-0.494-5.418,1.908V8.385l0,0V7.176
	C16.043,7.176,17.037,2.672,21.461,1.787z M18.471,22.123c0.814-0.479,1.801-0.828,2.988-0.83c1.189,0,2.193,0.35,3.023,0.83H18.471
	z M27.008,21.426c-1.223-1.078-3.09-2.182-5.549-2.182c-2.414-0.002-4.246,1.072-5.443,2.133v-0.082
	C18.318,18.168,23.125,19,23.125,19V5.48c1.045,0.311,1.9,0.869,2.564,1.457c0.49,0.434,0.859,0.875,1.105,1.201
	c0.088,0.111,0.158,0.215,0.213,0.293V21.426z"/>
<g>
</g>
<g>
</g>
<g>
</g>
<g>
</g>
<g>
</g>
<g>
</g>
<g>
</g>
<g>
</g>
<g>
</g>
<g>
</g>
<g>
</g>
<g>
</g>
<g>
</g>
<g>
</g>
<g>
</g>
</svg>
