<?xml version="1.0" encoding="utf-8"?>
<!-- Generator: Adobe Illustrator 18.0.0, SVG Export Plug-In . SVG Version: 6.00 Build 0)  -->
<!DOCTYPE svg PUBLIC "-//W3C//DTD SVG 1.1//EN" "http://www.w3.org/Graphics/SVG/1.1/DTD/svg11.dtd">
<svg version="1.1" id="Layer_1" xmlns="http://www.w3.org/2000/svg" xmlns:xlink="http://www.w3.org/1999/xlink" x="0px" y="0px"
	 viewBox="0 0 30 30" enable-background="new 0 0 30 30" xml:space="preserve">
<g>
	<path d="M29.6,14.7c0.5-0.6,0.5-1.6-0.1-2.1L16.1,0.4c-0.6-0.6-1.6-0.5-2.2,0L0.5,13.2c-0.6,0.6-0.6,1.5-0.1,2.1l0.3,0.4
		c0.6,0.6,1.5,0.7,2,0.2l1-0.9v13.6c0,0.8,0.7,1.5,1.5,1.5h5.2c0.8,0,1.5-0.7,1.5-1.5V19h6.7v9.5c0,0.8,0.6,1.5,1.4,1.5h5.6
		c0.8,0,1.5-0.7,1.5-1.5V15.1c0,0,0.3,0.3,0.6,0.6c0.3,0.3,1.1,0.1,1.6-0.6L29.6,14.7z"/>
</g>
</svg>
