<?xml version="1.0" encoding="utf-8"?>
<!-- Generator: Adobe Illustrator 18.0.0, SVG Export Plug-In . SVG Version: 6.00 Build 0)  -->
<!DOCTYPE svg PUBLIC "-//W3C//DTD SVG 1.1//EN" "http://www.w3.org/Graphics/SVG/1.1/DTD/svg11.dtd">
<svg version="1.1" id="Layer_1" xmlns="http://www.w3.org/2000/svg" xmlns:xlink="http://www.w3.org/1999/xlink" x="0px" y="0px"
	 viewBox="0 0 30 30" enable-background="new 0 0 30 30" xml:space="preserve">
<g>
	<path d="M28.8,12.7v-1.8l-0.1-0.5c0-0.1-0.6-1.1-1.9-2.2c-0.9-0.8-2.2-1.7-3.9-2V2.9c-7.3,0.5-8,6.2-8,6.2v0.1c0,0,0,0,0,0
		c-0.3-0.3-0.6-0.6-1-1C12.7,7.1,10.8,6,8.3,6C5.9,6,4,7.1,2.8,8.2C1.6,9.3,1.1,10.4,1,10.4l-0.1,0.5v1.8H0v15.1h30V12.7H28.8z
		 M5.4,24.8c0.8-0.5,1.8-0.8,3-0.8c1.2,0,2.2,0.3,3,0.8H5.4z M13.8,24.1c-1.2-1.1-3.1-2.2-5.5-2.2h0c-2.4,0-4.2,1.1-5.4,2.1V11.2
		c0.2-0.3,0.7-0.9,1.4-1.6c0.9-0.8,2.3-1.6,4-1.6c1.8,0,3.2,0.8,4.2,1.7c0.5,0.4,0.9,0.9,1.1,1.2c0.1,0.1,0.2,0.2,0.2,0.3L13.8,24.1
		z M21.2,4.6V6v2v11.8c0,0-2.7-0.5-5.4,1.9V11.2l0,0V10C15.9,10,16.9,5.5,21.2,4.6z M18.3,24.8c0.8-0.5,1.8-0.8,3-0.8
		c1.2,0,2.2,0.3,3,0.8H18.3z M26.7,24.1c-1.2-1.1-3.1-2.2-5.5-2.2c-2.4,0-4.2,1.1-5.4,2.1v-0.1c2.3-3.1,7-2.3,7-2.3V8.3
		c1,0.3,1.9,0.9,2.5,1.4c0.5,0.4,0.8,0.9,1.1,1.2c0.1,0.1,0.2,0.2,0.2,0.3L26.7,24.1L26.7,24.1z"/>
</g>
</svg>
