<?xml version="1.0" encoding="utf-8"?>
<!-- Generator: Adobe Illustrator 16.0.4, SVG Export Plug-In . SVG Version: 6.00 Build 0)  -->
<!DOCTYPE svg PUBLIC "-//W3C//DTD SVG 1.1//EN" "http://www.w3.org/Graphics/SVG/1.1/DTD/svg11.dtd">
<svg version="1.1" id="Layer_1" xmlns="http://www.w3.org/2000/svg" xmlns:xlink="http://www.w3.org/1999/xlink" x="0px" y="0px"
	 width="50px" height="50px" viewBox="0 0 50 50" enable-background="new 0 0 50 50" xml:space="preserve">
<g>
	<path d="M42.306,41.868h-7.453l2.698-2.698l-0.844-0.844h1.214l-1.522-1.521C39.802,37.139,42.306,38.432,42.306,41.868z
		 M31.892,38.326h-1.214l1.521-1.521c-3.4,0.334-5.904,1.627-5.904,5.063h7.451l-2.697-2.698L31.892,38.326z M37.333,31.32
		c-0.11,1.512-0.756,3.275-1.682,4.223h3.58V31.55c0-4.175-2.208-5.761-4.931-5.761c-2.724,0-4.932,1.586-4.932,5.761v3.993h3.579
		c-0.896-0.916-1.53-2.599-1.672-4.076l0.035-0.002c1.54,0,2.871-0.638,3.603-1.578C35.447,30.575,36.305,31.089,37.333,31.32z
		 M32.675,21.829l-2.325-1.427l-0.539,0.879l3.809,2.338l2.338-3.81l-0.88-0.54l-1.407,2.294c-1.479-5.204-5.646-8.99-10.615-10.202
		l0.273,1.145C27.712,13.762,31.347,17.182,32.675,21.829z M14.196,29.154l2.522,1.039l0.392-0.953l-4.132-1.704l-1.703,4.133
		l0.953,0.394l1.027-2.489c2.285,4.903,7.002,7.979,12.1,8.386l-0.452-1.087C20.379,36.332,16.245,33.532,14.196,29.154z
		 M16.218,8.132c0.066,0,0.131,0.004,0.197,0.006c0.021,0,0.043-0.004,0.065-0.006H16.218z M19.236,18.785l-1.936,3.799
		l-0.312-2.468l0.479-0.393h-1.16l-1.061,0.001l0.479,0.393l-0.303,2.47l-1.943-3.795c-3.372,0.459-5.791,1.907-5.787,5.42
		l17.339-0.021C25.03,20.678,22.607,19.236,19.236,18.785z M16.327,18.428h0.066c-0.013,0-0.024-0.003-0.038-0.001
		C16.346,18.427,16.337,18.427,16.327,18.428z M12.71,14.494c0.01-0.001,0.018-0.011,0.026-0.015
		c0.583,2.104,2.092,3.678,3.619,3.71c1.395-0.065,3.104-1.614,3.67-3.708c0.263,0.015,0.523-0.294,0.599-0.726
		c0.073-0.447-0.087-0.849-0.357-0.894c-0.018-0.002-0.034,0.008-0.051,0.009c-0.084-3.465-1.729-4.682-3.802-4.732
		c-2.136,0.014-4.047,1.5-3.923,4.743c-0.019-0.001-0.039-0.013-0.06-0.01c-0.27,0.047-0.428,0.448-0.353,0.896
		C12.157,14.215,12.438,14.54,12.71,14.494z"/>
</g>
</svg>
